<svg aria-hidden="true" style="position:absolute;width:0;height:0" xmlns="http://www.w3.org/2000/svg" overflow="hidden"><defs><symbol id="burger-menu-icon" viewBox="0 0 46 32"><path fill="none" stroke="var(--color1, #d41443)" stroke-width="2.286" d="M0 2.286h45.714M0 16h45.714M0 29.714h45.714"/></symbol><symbol id="close-menu-icon" viewBox="0 0 32 32"><path fill="none" stroke="var(--color2, #fff)" stroke-width="2" d="M2.52 2l26.96 28M2 29.48L30 2.52"/></symbol><symbol id="facebook-icon" viewBox="0 0 33 32"><path d="M16.47 32c8.837 0 16-7.163 16-16s-7.163-16-16-16c-8.836 0-16 7.163-16 16s7.164 16 16 16z"/><path fill="var(--color2, #fff)" d="M20.916 15.981h-2.61V25.6h-3.955v-9.62h-1.88V12.6h1.88v-2.187c0-1.565.74-4.014 3.99-4.014l2.93.012v3.281h-2.126c-.348 0-.839.176-.839.922v1.99h2.956l-.346 3.376z"/></symbol><symbol id="github-icon" viewBox="0 0 32 32"><path d="M32 16c0 8.837-7.163 16-16 16S0 24.837 0 16 7.163 0 16 0s16 7.163 16 16z"/><path fill="var(--color2, #fff)" d="M16 6.588c-5.17 0-9.412 4.243-9.412 9.412 0 4.412 3.096 8.419 7.206 9.412v-3.114c-.407.09-.782.092-1.197-.03-.556-.165-1.008-.535-1.343-1.1-.214-.36-.593-.752-.988-.723l-.097-1.099c.855-.073 1.594.521 2.033 1.259.195.328.42.52.708.605.278.082.577.043.926-.08.087-.698.407-.96.648-1.327-2.451-.366-3.428-1.666-3.816-2.693-.514-1.363-.238-3.066.67-4.142.018-.02.05-.076.038-.114-.417-1.259.09-2.3.11-2.41.48.142.558-.143 2.088.786l.264.159c.11.066.076.028.187.02a7.777 7.777 0 011.969-.278H16a7.986 7.986 0 012.058.299l-.056-.014.086.009c-.008-.002.023-.006.075-.037 1.91-1.157 1.842-.779 2.354-.945.019.11.52 1.168.108 2.41-.056.172 1.656 1.74.707 4.257-.388 1.027-1.365 2.327-3.816 2.693.314.48.692.734.69 1.722v3.887c4.11-.993 7.206-5 7.206-9.412 0-5.17-4.242-9.412-9.412-9.412z"/></symbol><symbol id="quote-icon" viewBox="0 0 43 32"><path fill="var(--color4, #e1e1e1)" d="M32.014 0c1.928 0 3.75.52 5.464 1.561s3.107 2.537 4.178 4.488c1.029 1.951 1.543 4.25 1.543 6.894s-.643 5.225-1.928 7.74c-.429.91-1.2 2.081-2.315 3.512a63.65 63.65 0 01-3.214 3.707L31.692 32l-2.893-4.813a22.225 22.225 0 005.306-4.646l.03-.037c1.542-1.821 2.314-3.49 2.314-5.008 0-.781-.171-1.41-.514-1.886a8.361 8.361 0 01-5.014 1.626c-1.328 0-2.593-.412-3.793-1.236a8.638 8.638 0 01-2.935-3.078l-.022-.043c-.771-1.258-1.157-2.558-1.157-3.902 0-1.518.45-2.97 1.35-4.358a10.313 10.313 0 013.364-3.356l.044-.025C29.142.414 30.556.002 32.014.002zM8.936 0c1.928 0 3.75.52 5.464 1.561s3.107 2.536 4.178 4.488c1.029 1.951 1.543 4.25 1.543 6.894 0 1.864-.236 3.534-.707 5.008-.472 1.518-1.286 3.1-2.443 4.748-1.114 1.561-2.164 2.862-3.15 3.902-.986 1.084-2.7 2.883-5.143 5.398l-2.893-4.813a22.225 22.225 0 005.306-4.646l.03-.037c1.542-1.821 2.314-3.49 2.314-5.008 0-.781-.172-1.41-.514-1.886a8.361 8.361 0 01-5.014 1.626c-1.328 0-2.593-.412-3.793-1.236a8.638 8.638 0 01-2.935-3.078l-.022-.043C.386 11.62 0 10.32 0 8.976c0-1.518.429-2.97 1.286-4.358A10.313 10.313 0 014.65 1.262l.045-.025C6.065.413 7.479.001 8.937.001z"/></symbol><symbol id="read-more-icon" viewBox="0 0 26 32"><path fill="none" stroke-linejoin="round" stroke-linecap="round" stroke-width="6.4" d="M5.171 3.2L19.341 16 5.171 28.8"/></symbol><symbol id="telegram-icon" viewBox="0 0 33 32"><path d="M32.235 16c0 8.837-7.163 16-16 16s-16-7.163-16-16 7.163-16 16-16 16 7.163 16 16z"/><path fill="var(--color2, #fff)" d="M13.102 18.375l-.317 4.17c.454 0 .651-.183.887-.401l2.13-1.9 4.415 3.017c.81.42 1.38.199 1.599-.695l2.897-12.673h.001c.257-1.118-.433-1.554-1.222-1.28L6.46 14.699c-1.162.42-1.145 1.026-.198 1.3l4.355 1.264 10.114-5.907c.476-.294.91-.131.553.163l-8.181 6.856z"/></symbol><symbol id="arrow-right-icon" viewBox="0 0 40 40"><path d="M484.14 226.886L306.46 49.202c-5.072-5.072-11.832-7.856-19.04-7.856-7.216 0-13.972 2.788-19.044 7.856l-16.132 16.136c-5.068 5.064-7.86 11.828-7.86 19.04 0 7.208 2.792 14.2 7.86 19.264L355.9 207.526H26.58C11.732 207.526 0 219.15 0 234.002v22.812c0 14.852 11.732 27.648 26.58 27.648h330.496L252.248 388.926c-5.068 5.072-7.86 11.652-7.86 18.864 0 7.204 2.792 13.88 7.86 18.948l16.132 16.084c5.072 5.072 11.828 7.836 19.044 7.836 7.208 0 13.968-2.8 19.04-7.872l177.68-177.68c5.084-5.088 7.88-11.88 7.86-19.1.016-7.244-2.776-14.04-7.864-19.12z" fill="#d41443" data-original="#000000" xmlns="http://www.w3.org/2000/svg"/></symbol><symbol id="icon-name" viewBox="0 0 18 18"><path d="M9 9a3 3 0 100-6 3 3 0 100 6zm0 1.5c-2.003 0-6 1.005-6 3v.75c0 .412.337.75.75.75h10.5c.412 0 .75-.338.75-.75v-.75c0-1.995-3.998-3-6-3z"/></symbol><symbol id="icon-tel" viewBox="0 0 18 18"><path d="M13.996 11.123l-1.838-.21a1.44 1.44 0 00-1.187.412l-1.332 1.332a10.888 10.888 0 01-4.769-4.77L6.21 6.55a1.44 1.44 0 00.412-1.187l-.21-1.824a1.448 1.448 0 00-1.44-1.28H3.72c-.818 0-1.498.68-1.448 1.497.384 6.18 5.327 11.116 11.5 11.5.817.05 1.498-.63 1.498-1.448v-1.252a1.434 1.434 0 00-1.274-1.432z"/></symbol><symbol id="icon-email" viewBox="0 0 18 18"><path d="M15 3H3c-.825 0-1.492.675-1.492 1.5l-.008 9c0 .825.675 1.5 1.5 1.5h12c.825 0 1.5-.675 1.5-1.5v-9c0-.825-.675-1.5-1.5-1.5zm-.3 3.188L9.398 9.502a.759.759 0 01-.796 0L3.3 6.188a.637.637 0 11.675-1.08L9 8.25l5.025-3.143a.637.637 0 11.675 1.08z"/></symbol><symbol id="icon-check" viewBox="0 0 13 10"><path d="M1.957 4.752l-.069-.066-.069.065-.888.842-.076.072.076.073 3.496 3.334.069.066.069-.066 7.504-7.158.076-.073-.076-.072-.882-.841-.069-.066-.069.066-6.553 6.246-2.539-2.422z"/></symbol><symbol id="icon-close" viewBox="0 0 18 18"><path d="M15 4.108L13.892 3 9.5 7.392 5.108 3 4 4.108 8.392 8.5 4 12.892 5.108 14 9.5 9.608 13.892 14 15 12.892 10.608 8.5 15 4.108z"/></symbol><symbol id="dots-product-icon" viewBox="0 0 139 32"><path fill="var(--color1, #fff)" d="M85.333 16c0 8.837-7.163 16-16 16s-16-7.163-16-16 7.163-16 16-16 16 7.163 16 16zM32 16c0 8.837-7.163 16-16 16S0 24.837 0 16 7.163 0 16 0s16 7.163 16 16zM138.667 16c0 8.837-7.163 16-16 16s-16-7.163-16-16 7.163-16 16-16 16 7.163 16 16z"/></symbol><symbol id="group16-icon" viewBox="0 0 31 32"><path fill="var(--color1, #fff)" d="M19.636 5.818a5.818 5.818 0 1011.636 0 5.818 5.818 0 00-11.636 0z"/><path fill="var(--color3, #d41443)" d="M8.885 20.602c0 .149-.414.271-1.242.367-.745.078-1.609.122-2.484.122-.828 0-1.364-.034-1.609-.102-.231-.081-.346-.211-.346-.387v-8.797H1.128c-.231 0-.346-.495-.346-1.487s.116-1.887.346-2.688c.068-.258.788-.495 2.159-.713s2.423-.326 3.156-.326 1.222.027 1.466.081c.244.055.428.122.55.204a.842.842 0 01.285.244.802.802 0 01.143.428v13.053zm7.924-8.41c.122-.109.448-.251.977-.428s1.127-.265 1.792-.265c.679 0 1.249.102 1.711.305.475.19.841.434 1.1.733.271.298.482.672.631 1.12a6.92 6.92 0 01.367 2.24c0 .76-.034 1.337-.102 1.731-.055.38-.204.807-.448 1.283-.233.479-.556.88-.95 1.196l-.007.005c-.393.326-.964.604-1.711.835-.733.217-1.595.326-2.586.326-2.131 0-3.74-.584-4.826-1.751-1.086-1.181-1.629-3.081-1.629-5.702 0-2.633.509-4.527 1.527-5.681 1.018-1.167 2.566-1.751 4.643-1.751 1.425 0 2.661.109 3.706.326 1.059.204 1.588.448 1.588.733 0 .353-.136.971-.407 1.853-.258.882-.495 1.324-.713 1.324-.068 0-.271-.034-.611-.102-.924-.19-1.765-.285-2.525-.285s-1.249.19-1.466.57c-.217.367-.326.909-.326 1.629.055-.068.143-.149.265-.244zm.448 1.833c-.393 0-.591.733-.591 2.199 0 1.452.196 2.179.591 2.179.421 0 .631-.727.631-2.179 0-1.466-.211-2.199-.631-2.199z"/><path fill="var(--color1, #fff)" d="M11.217 30.615c-.276 0-.524-.062-.745-.186a1.429 1.429 0 01-.514-.522l-.004-.007a1.62 1.62 0 01-.187-.761v-.038.002c0-.303.062-.567.186-.791.123-.223.299-.402.511-.526l.007-.003a1.44 1.44 0 01.724-.192h.022-.001c.342 0 .628.089.861.268.236.178.385.417.448.716h-.5a.639.639 0 00-.283-.412l-.003-.002a.924.924 0 00-.509-.151h-.021.001-.002a.908.908 0 00-.462.125l.004-.002c-.143.081-.26.204-.349.367s-.134.364-.134.605c0 .24.044.442.134.605s.205.287.349.372a.92.92 0 00.46.122.967.967 0 00.529-.145.653.653 0 00.284-.421l.001-.004h.5c-.058.291-.206.527-.442.71s-.526.273-.867.273zm2.951 0c-.24 0-.44-.041-.599-.122a.832.832 0 01-.472-.748v-.021.001c0-.295.113-.521.337-.681s.532-.239.919-.239h.78v-.035c0-.252-.065-.442-.198-.57-.132-.132-.308-.198-.529-.198a.854.854 0 00-.495.145.622.622 0 00-.256.41v.003h-.5a.944.944 0 01.209-.529c.124-.143.278-.252.46-.326.183-.078.377-.116.582-.116.404 0 .706.109.908.326.206.213.308.498.308.855v1.775h-.436l-.029-.518c-.087.17-.209.31-.357.417l-.003.002c-.155.113-.364.169-.628.169zm.076-.413a.79.79 0 00.477-.145.911.911 0 00.308-.378c.066-.143.105-.31.105-.486V29.184h-.739c-.287 0-.49.051-.611.151a.458.458 0 00-.175.36v.007c0 .151.055.273.163.367.113.089.27.134.471.134zm2.269.343v-2.473h-.436v-.413h.436v-.5c0-.279.071-.483.21-.611s.343-.192.611-.192h.291v.419h-.216c-.147 0-.252.031-.313.093-.063.058-.093.159-.093.303v.489h.71v.413h-.71v2.473h-.489zm2.964.07c-.275 0-.519-.062-.733-.186a1.406 1.406 0 01-.503-.522l-.004-.007a1.671 1.671 0 01-.18-.797c0-.303.06-.567.18-.791.121-.229.287-.405.5-.529.207-.121.456-.192.722-.192h.03-.002c.279 0 .52.064.721.192.206.124.363.289.471.495a1.381 1.381 0 01.157.798v-.006.145h-2.298c.012.221.063.405.151.553a.96.96 0 00.343.326c.14.073.287.111.442.111.202 0 .371-.047.506-.14s.235-.219.297-.378h.483a1.315 1.315 0 01-.445.667l-.003.002c-.217.175-.496.262-.838.262zm0-2.612a.984.984 0 00-.623.215c-.178.14-.281.345-.308.617h1.815c-.012-.26-.1-.463-.268-.611a.89.89 0 00-.59-.221h-.028.001zm3.121 2.612c-.345 0-.633-.087-.861-.262a1.02 1.02 0 01-.401-.705v-.005h.5a.71.71 0 00.239.396c.132.109.308.163.529.163.206 0 .356-.043.454-.128a.412.412 0 00.145-.314c0-.175-.064-.291-.192-.349a2.358 2.358 0 00-.514-.155l-.015-.002a2.994 2.994 0 01-.486-.141l.021.007a1.088 1.088 0 01-.39-.245.581.581 0 01-.158-.4l.001-.026v.001c0-.252.093-.458.279-.617.19-.163.446-.244.768-.244.306 0 .556.078.751.233.198.151.313.369.343.652h-.483a.489.489 0 00-.191-.342l-.001-.001a.657.657 0 00-.425-.128c-.175 0-.311.036-.407.111a.354.354 0 00-.14.281v.01c0 .116.06.207.18.273.124.065.291.122.5.169.199.043.369.093.533.154l-.027-.009a.913.913 0 01.396.25c.105.109.157.268.157.477a.793.793 0 01-.297.646c-.198.167-.468.25-.809.25z"/></symbol><symbol id="group23-icon" viewBox="0 0 38 32"><path fill="var(--color1, #fff)" d="M26.047 5.954A5.954 5.954 0 1032 0a5.953 5.953 0 00-5.953 5.954z"/><path fill="var(--color3, #d41443)" d="M7.732 11.44c-.388 0-.729-.458-1.021-1.375a9.11 9.11 0 01-.417-2.646c0-.194.216-.409.646-.646.431-.25 1.084-.473 1.959-.667s1.827-.292 2.855-.292c3.987 0 5.98 1.396 5.98 4.188v.029a4.89 4.89 0 01-.513 2.187l.013-.028c-.333.681-.701 1.229-1.104 1.646a8.447 8.447 0 01-1.383 1.105l-.034.02c-.625.389-1.222.694-1.792.917h4.167c.083 0 .174.042.271.125.097.069.201.292.313.667.112.361.167.819.167 1.375 0 .542-.034 1-.104 1.375-.069.361-.153.625-.25.792-.208.375-.396.577-.563.604l-.104.021H7.691c-.875 0-1.313-1.369-1.313-4.105 0-.305.903-1.146 2.709-2.521a14.195 14.195 0 001.87-1.641l.005-.005c.57-.598.854-1.084.854-1.459 0-.417-.313-.625-.938-.625s-1.284.16-1.98.479c-.68.32-1.069.479-1.167.479zM31.18 9.71c0 1.403-.556 2.452-1.667 3.146.153.069.347.236.583.5.251.264.458.528.625.792.432.681.647 1.486.647 2.417 0 1.528-.549 2.653-1.646 3.376s-2.605 1.084-4.522 1.084c-.944 0-1.84-.077-2.687-.229-.834-.167-1.474-.348-1.917-.542-.445-.208-.667-.396-.667-.563 0-.764.083-1.438.249-2.021s.355-.994.563-1.229c.208-.25.41-.375.605-.375.055 0 .423.125 1.104.375s1.347.375 2 .375c.667 0 1-.208 1-.625 0-.569-.701-.875-2.105-.917-.555-.014-.861-.028-.917-.042-.292-.097-.438-.708-.438-1.834s.147-1.744.438-1.854c.056-.028.362-.042.917-.042 1.404-.028 2.105-.313 2.105-.854 0-.417-.305-.625-.917-.625-.597 0-1.264.146-2 .438s-1.139.438-1.208.438c-.32 0-.612-.465-.876-1.396s-.396-1.59-.396-1.98c0-.361.403-.729 1.209-1.104.889-.403 2.195-.604 3.917-.604 4 0 6 1.299 6 3.897z"/><path fill="var(--color1, #fff)" d="M1.275 30.512v-2.53H.828v-.423h.447v-.512c0-.286.071-.494.214-.625s.351-.196.625-.196h.298v.429h-.22c-.15 0-.258.032-.321.095-.063.06-.095.163-.095.31v.5h.726v.423h-.726v2.53h-.5zm3.051.071c-.278 0-.528-.063-.75-.191a1.413 1.413 0 01-.526-.529l-.004-.007c-.127-.234-.191-.508-.191-.822s.066-.586.196-.816c.126-.228.306-.412.523-.538l.007-.004c.226-.127.478-.191.756-.191s.528.063.75.191c.223.127.397.307.524.542.131.231.196.502.196.816s-.066.588-.196.822c-.131.231-.31.409-.536.536a1.489 1.489 0 01-.75.191zm0-.429a.931.931 0 00.833-.5c.092-.167.137-.373.137-.619s-.045-.452-.137-.619a.906.906 0 00-.347-.373l-.004-.002a.924.924 0 00-.468-.125h-.003a.931.931 0 00-.833.5c-.092.167-.137.373-.137.619s.045.452.137.619.208.292.351.375a.942.942 0 00.47.125zm3.523.429c-.278 0-.528-.063-.75-.191a1.41 1.41 0 01-.525-.529l-.004-.007c-.127-.234-.191-.508-.191-.822s.066-.586.196-.816c.125-.228.305-.412.522-.538l.007-.004c.212-.12.466-.191.737-.191h.021-.001c.278 0 .528.063.75.191.223.127.397.307.524.542.131.231.196.502.196.816s-.066.588-.196.822c-.13.231-.309.409-.536.536a1.483 1.483 0 01-.75.191zm0-.429a.931.931 0 00.833-.5c.092-.167.137-.373.137-.619s-.045-.452-.137-.619a.906.906 0 00-.347-.373l-.004-.002a.924.924 0 00-.468-.125H7.86a.925.925 0 00-.833.5c-.091.167-.137.373-.137.619s.046.452.137.619a.94.94 0 00.352.375.94.94 0 00.47.125zm3.518.429c-.294 0-.551-.067-.774-.202a1.41 1.41 0 01-.508-.546l-.004-.008a1.71 1.71 0 01-.179-.767v-.032.002c0-.298.062-.562.185-.792a1.36 1.36 0 01.512-.548 1.44 1.44 0 01.774-.202c.242 0 .456.05.643.149s.331.238.435.417v-1.828h.5v4.287h-.452l-.048-.488a1.41 1.41 0 01-.405.384l-.006.003c-.179.115-.403.173-.673.173zm.053-.435a.985.985 0 00.524-.137.943.943 0 00.357-.393c.087-.167.131-.361.131-.583s-.044-.417-.131-.583a.92.92 0 00-.353-.385l-.004-.002a.948.948 0 00-.504-.143h-.021.001a.973.973 0 00-.879.525l-.003.005a1.27 1.27 0 00-.125.554v.03-.002c0 .223.042.417.125.583a.999.999 0 00.357.393c.155.092.33.137.524.137zm5.088.364c-.27 0-.482-.066-.638-.196-.154-.131-.231-.367-.231-.708v-1.625h-.513v-.423h.513l.065-.708h.435v.708h.87v.423h-.87v1.625c0 .186.038.313.113.381.076.063.208.095.4.095h.31v.429h-.452zm1.135 0v-2.953h.452l.042.566c.092-.194.231-.35.417-.464s.417-.173.691-.173v.524h-.137c-.174 0-.335.032-.482.095a.72.72 0 00-.349.306l-.002.003c-.087.147-.131.35-.131.607v1.488h-.5zm4.747-2.953v2.953h-.452l-.03-.53a1.08 1.08 0 01-.406.438l-.005.003a1.16 1.16 0 01-.608.161c-.349 0-.629-.105-.839-.316-.206-.214-.31-.542-.31-.982v-1.727h.5v1.673c0 .615.255.923.762.923h.02a.82.82 0 00.611-.273l.001-.001c.171-.186.257-.45.257-.792v-1.53h.5zm2.181 3.024c-.282 0-.536-.063-.762-.191a1.458 1.458 0 01-.526-.535l-.004-.007a1.665 1.665 0 01-.191-.779v-.039.002c0-.31.063-.58.191-.81.126-.228.306-.412.523-.538l.007-.004c.213-.124.468-.197.741-.197h.023-.001c.349 0 .643.092.881.274.242.182.394.426.458.732h-.512a.647.647 0 00-.289-.421l-.003-.002a.945.945 0 00-.521-.155h-.022.001-.003a.93.93 0 00-.472.127l.004-.002c-.147.083-.266.208-.357.375s-.137.373-.137.619.045.452.137.619.21.294.357.381a.942.942 0 00.47.125c.206 0 .387-.05.542-.149a.671.671 0 00.291-.43l.001-.004h.512c-.06.298-.211.54-.452.726s-.538.28-.887.28zm2.037-.071v-4.287h.5v2.578l1.209-1.244h.613l-1.31 1.334 1.477 1.619h-.637l-1.351-1.53v1.53h-.5zm3.957.071c-.354 0-.647-.089-.881-.268a1.04 1.04 0 01-.41-.722v-.005h.512c.032.155.113.29.244.405.135.112.316.167.542.167.211 0 .365-.044.464-.131a.426.426 0 00.149-.321c0-.179-.066-.298-.196-.357a2.397 2.397 0 00-.526-.158l-.015-.002a3.1 3.1 0 01-.497-.144l.021.007a1.105 1.105 0 01-.399-.25.597.597 0 01-.161-.409l.001-.027v.001c0-.258.095-.469.286-.631.194-.167.456-.25.786-.25.313 0 .569.08.768.238.202.155.32.377.351.667h-.494a.501.501 0 00-.195-.35l-.001-.001a.67.67 0 00-.435-.131c-.179 0-.318.037-.417.113a.363.363 0 00-.143.288v.01c0 .119.062.212.185.28.127.067.298.125.512.173.204.044.377.095.545.158l-.027-.009a.93.93 0 01.405.256c.107.112.161.274.161.488a.811.811 0 01-.304.661c-.202.171-.479.256-.828.256z"/></symbol><symbol id="icon-dots" viewBox="0 0 256 32"><path fill="var(--color1, #c7133e)" d="M144 16c0 8.837-7.163 16-16 16s-16-7.163-16-16 7.163-16 16-16 16 7.163 16 16zM32 16c0 8.837-7.163 16-16 16S0 24.837 0 16 7.163 0 16 0s16 7.163 16 16zM256 16c0 8.837-7.163 16-16 16s-16-7.163-16-16 7.163-16 16-16 16 7.163 16 16z"/></symbol><symbol id="icon-ellipse" viewBox="0 0 32 32"><path fill="var(--color1, #d9d9d9)" d="M32 16c0 8.837-7.163 16-16 16S0 24.837 0 16 7.163 0 16 0s16 7.163 16 16z"/></symbol><symbol id="icon-home" viewBox="0 0 35 32"><path fill="var(--color2, #d31342)" d="M34.253 15.613a1.571 1.571 0 00-.129-2.254l-.002-.002L19.349.432A1.828 1.828 0 0018.165 0c-.467 0-.893.174-1.217.46l.002-.002L2.129 14.047a1.564 1.564 0 00-.071 2.251l.373.387c.613.64 1.611.72 2.224.171l1.107-.992v14.523c0 .893.72 1.613 1.613 1.613h5.773c.891 0 1.613-.72 1.613-1.613v-10.16h7.373v10.16c-.013.891.624 1.613 1.515 1.613h6.123a1.61 1.61 0 001.611-1.613v-14.32l.685.603c.376.331 1.168.064 1.765-.595l.421-.461z"/></symbol><symbol id="icon-quotation-mark" viewBox="0 0 43 32"><path fill="var(--color1, #e1e1e1)" d="M32.014 0c1.928 0 3.75.52 5.464 1.561s3.107 2.536 4.178 4.488c1.029 1.951 1.543 4.25 1.543 6.894s-.643 5.225-1.928 7.74c-.429.91-1.2 2.081-2.315 3.512a63.65 63.65 0 01-3.214 3.707L31.692 32l-2.893-4.813a22.225 22.225 0 005.306-4.646l.03-.037c1.542-1.821 2.314-3.49 2.314-5.008 0-.781-.171-1.41-.514-1.886a8.361 8.361 0 01-5.014 1.626c-1.328 0-2.593-.412-3.793-1.236a8.638 8.638 0 01-2.935-3.078l-.022-.043c-.771-1.258-1.157-2.558-1.157-3.902 0-1.518.45-2.97 1.35-4.358a10.313 10.313 0 013.364-3.356l.044-.025C29.142.414 30.556.002 32.014.002zM8.936 0c1.928 0 3.75.52 5.464 1.561s3.107 2.536 4.178 4.488c1.029 1.951 1.543 4.25 1.543 6.894 0 1.864-.236 3.534-.707 5.008-.472 1.518-1.286 3.1-2.443 4.748-1.114 1.561-2.164 2.862-3.15 3.902-.986 1.084-2.7 2.883-5.143 5.398l-2.893-4.813a22.225 22.225 0 005.306-4.646l.03-.037c1.542-1.821 2.314-3.49 2.314-5.008 0-.781-.172-1.41-.514-1.886a8.361 8.361 0 01-5.014 1.626c-1.328 0-2.593-.412-3.793-1.236a8.638 8.638 0 01-2.935-3.078l-.022-.043C.386 11.62 0 10.32 0 8.976c0-1.518.429-2.97 1.286-4.358A10.313 10.313 0 014.65 1.262l.045-.025C6.065.413 7.479.001 8.937.001z"/></symbol><symbol id="icon-arrow-right3" viewBox="0 0 32 32"><path fill="var(--color1, #d41443)" d="M31.489 14.757L19.933 3.2c-.33-.33-.77-.511-1.238-.511s-.909.181-1.239.511l-1.049 1.05c-.33.329-.511.769-.511 1.238s.182.924.511 1.253l6.742 6.757H1.73A1.71 1.71 0 00.001 15.22v1.484c0 .966.763 1.798 1.729 1.798h21.495l-6.818 6.794c-.33.33-.511.758-.511 1.227s.182.903.511 1.232l1.049 1.046c.33.33.769.51 1.239.51s.908-.182 1.238-.512l11.556-11.556c.331-.331.513-.773.511-1.242a1.745 1.745 0 00-.511-1.244z"/></symbol></defs></svg>