<svg width="43" height="44" fill="none" xmlns="http://www.w3.org/2000/svg"><circle r="8" transform="matrix(-1 0 0 1 35 8)" fill="#fff"/><path d="M12.217 28.328c0 .205-.569.373-1.708.504A34.875 34.875 0 017.093 29c-1.138 0-1.876-.047-2.212-.14-.317-.112-.476-.29-.476-.532V16.232H1.55c-.317 0-.476-.681-.476-2.044s.16-2.595.476-3.696c.094-.355 1.083-.681 2.968-.98 1.886-.299 3.332-.448 4.34-.448s1.68.037 2.016.112c.336.075.588.168.756.28.168.093.3.205.392.336.131.205.196.401.196.588v17.948zm10.896-11.564c.168-.15.616-.345 1.344-.588.728-.243 1.55-.364 2.464-.364.933 0 1.717.14 2.352.42.653.261 1.157.597 1.512 1.008.373.41.663.924.868 1.54a9.68 9.68 0 01.504 3.08c0 1.045-.047 1.839-.14 2.38-.075.523-.28 1.11-.616 1.764a4.74 4.74 0 01-1.316 1.652c-.541.448-1.325.83-2.352 1.148-1.008.299-2.193.448-3.556.448-2.93 0-5.143-.803-6.636-2.408-1.493-1.624-2.24-4.237-2.24-7.84 0-3.621.7-6.225 2.1-7.812 1.4-1.605 3.528-2.408 6.384-2.408 1.96 0 3.659.15 5.096.448 1.456.28 2.184.616 2.184 1.008 0 .485-.187 1.335-.56 2.548-.355 1.213-.681 1.82-.98 1.82-.093 0-.373-.047-.84-.14-1.27-.261-2.427-.392-3.472-.392s-1.717.261-2.016.784c-.299.504-.448 1.25-.448 2.24.075-.093.196-.205.364-.336zm.616 2.52c-.541 0-.812 1.008-.812 3.024 0 1.997.27 2.996.812 2.996.579 0 .868-.999.868-2.996 0-2.016-.29-3.024-.868-3.024z" fill="#D41443"/><path d="M15.423 42.096c-.379 0-.72-.085-1.024-.256a1.944 1.944 0 01-.712-.728 2.263 2.263 0 01-.256-1.096c0-.416.085-.779.256-1.088a1.87 1.87 0 01.712-.728 2.006 2.006 0 011.024-.264c.47 0 .864.123 1.184.368.325.245.53.573.616.984h-.688a.868.868 0 00-.392-.568 1.281 1.281 0 00-.728-.208 1.26 1.26 0 00-.632.168c-.197.112-.357.28-.48.504-.123.224-.184.501-.184.832 0 .33.061.608.184.832.122.224.282.395.48.512.197.112.408.168.632.168.277 0 .52-.067.728-.2a.9.9 0 00.392-.584h.688c-.08.4-.283.725-.608.976-.325.25-.723.376-1.192.376zm4.058 0c-.33 0-.605-.056-.824-.168a1.141 1.141 0 01-.648-1.056c0-.405.155-.717.464-.936.31-.219.731-.328 1.264-.328h1.072v-.048c0-.347-.09-.608-.272-.784-.181-.181-.424-.272-.728-.272-.261 0-.488.067-.68.2a.849.849 0 00-.352.568h-.688c.027-.288.123-.53.288-.728.171-.197.382-.347.632-.448.251-.107.518-.16.8-.16.555 0 .971.15 1.248.448.283.293.424.685.424 1.176V42h-.6l-.04-.712a1.594 1.594 0 01-.496.576c-.213.155-.501.232-.864.232zm.104-.568c.256 0 .475-.067.656-.2.187-.133.328-.307.424-.52a1.62 1.62 0 00.144-.672v-.008h-1.016c-.394 0-.674.07-.84.208a.629.629 0 00-.24.504c0 .208.075.376.224.504.155.123.371.184.648.184zm3.12.472v-3.4h-.6v-.568h.6v-.688c0-.384.097-.664.289-.84.192-.176.471-.264.84-.264h.4v.576h-.297c-.202 0-.346.043-.431.128-.086.08-.128.219-.128.416v.672h.976v.568h-.976V42h-.672zm4.076.096c-.378 0-.714-.085-1.008-.256a1.905 1.905 0 01-.696-.728c-.165-.31-.248-.675-.248-1.096 0-.416.083-.779.248-1.088.166-.315.395-.557.688-.728a1.995 1.995 0 011.032-.264c.384 0 .715.088.992.264.283.17.499.397.648.68a1.924 1.924 0 01.216 1.088v.2h-3.16c.016.304.086.557.208.76.128.197.286.347.472.448.192.101.395.152.608.152.278 0 .51-.064.696-.192.187-.128.323-.301.408-.52h.664a1.803 1.803 0 01-.616.92c-.298.24-.682.36-1.152.36zm0-3.592c-.32 0-.605.099-.856.296-.245.192-.386.475-.424.848h2.496c-.016-.357-.138-.637-.368-.84a1.234 1.234 0 00-.848-.304zm4.291 3.592c-.475 0-.87-.12-1.184-.36a1.403 1.403 0 01-.552-.976h.688c.043.208.152.39.328.544.181.15.424.224.728.224.283 0 .49-.059.624-.176a.57.57 0 00.2-.432c0-.24-.088-.4-.264-.48a3.366 3.366 0 00-.728-.216 4.13 4.13 0 01-.64-.184 1.481 1.481 0 01-.536-.336.806.806 0 01-.216-.584c0-.347.128-.63.384-.848.261-.224.613-.336 1.056-.336.421 0 .765.107 1.032.32.272.208.43.507.472.896H31.8a.672.672 0 00-.264-.472c-.144-.117-.339-.176-.584-.176-.24 0-.427.05-.56.152a.485.485 0 00-.192.4c0 .16.083.285.248.376.17.09.4.168.688.232a5.3 5.3 0 01.696.2c.224.075.405.19.544.344.144.15.216.368.216.656.005.357-.13.653-.408.888-.272.23-.643.344-1.112.344z" fill="#fff"/></svg>