<svg width="51" height="43" fill="none" xmlns="http://www.w3.org/2000/svg"><circle r="8" transform="matrix(-1 0 0 1 43 8)" fill="#fff"/><path d="M10.39 15.372c-.522 0-.98-.616-1.372-1.848-.373-1.232-.56-2.417-.56-3.556 0-.261.29-.55.868-.868.579-.336 1.456-.635 2.632-.896 1.176-.261 2.455-.392 3.836-.392 5.358 0 8.036 1.876 8.036 5.628a6.595 6.595 0 01-.672 2.94c-.448.915-.942 1.652-1.484 2.212a11.316 11.316 0 01-1.904 1.512c-.84.523-1.642.933-2.408 1.232h5.6c.112 0 .234.056.364.168.13.093.27.392.42.896.15.485.224 1.101.224 1.848 0 .728-.046 1.344-.14 1.848-.093.485-.205.84-.336 1.064-.28.504-.532.775-.756.812l-.14.028H10.334c-1.176 0-1.764-1.839-1.764-5.516 0-.41 1.214-1.54 3.64-3.388a19.094 19.094 0 002.52-2.212c.766-.803 1.148-1.456 1.148-1.96 0-.56-.42-.84-1.26-.84-.84 0-1.726.215-2.66.644-.914.43-1.437.644-1.568.644zm31.508-2.324c0 1.885-.747 3.295-2.24 4.228.205.093.466.317.783.672.337.355.616.71.84 1.064.58.915.869 1.997.869 3.248 0 2.053-.738 3.565-2.212 4.536-1.475.97-3.5 1.456-6.077 1.456-1.269 0-2.473-.103-3.611-.308-1.12-.224-1.98-.467-2.576-.728-.598-.28-.896-.532-.896-.756 0-1.027.112-1.932.335-2.716.224-.784.477-1.335.756-1.652.28-.336.551-.504.813-.504.074 0 .569.168 1.484.504.914.336 1.81.504 2.687.504.896 0 1.344-.28 1.344-.84 0-.765-.942-1.176-2.828-1.232-.746-.019-1.157-.037-1.232-.056-.392-.13-.588-.952-.588-2.464s.197-2.343.588-2.492c.075-.037.486-.056 1.232-.056 1.886-.037 2.828-.42 2.828-1.148 0-.56-.41-.84-1.232-.84-.802 0-1.698.196-2.688.588-.989.392-1.53.588-1.623.588-.43 0-.822-.625-1.177-1.876-.354-1.25-.532-2.137-.532-2.66 0-.485.542-.98 1.625-1.484 1.194-.541 2.949-.812 5.264-.812 5.375 0 8.063 1.745 8.063 5.236z" fill="#D41443"/><path d="M1.713 41v-3.4h-.6v-.568h.6v-.688c0-.384.096-.664.288-.84.192-.176.472-.264.84-.264h.4v.576h-.296c-.202 0-.346.043-.432.128-.085.08-.128.219-.128.416v.672h.976v.568h-.976V41h-.672zm4.1.096c-.373 0-.71-.085-1.008-.256a1.885 1.885 0 01-.712-.72c-.17-.315-.256-.683-.256-1.104 0-.421.088-.787.264-1.096a1.87 1.87 0 01.712-.728c.304-.17.643-.256 1.016-.256s.71.085 1.008.256c.299.17.533.413.704.728.176.31.264.675.264 1.096 0 .421-.088.79-.264 1.104-.176.31-.416.55-.72.72-.299.17-.635.256-1.008.256zm0-.576c.23 0 .443-.056.64-.168.197-.112.357-.28.48-.504.123-.224.184-.501.184-.832 0-.33-.061-.608-.184-.832a1.202 1.202 0 00-.472-.504 1.26 1.26 0 00-.632-.168c-.23 0-.443.056-.64.168-.197.112-.357.28-.48.504-.123.224-.184.501-.184.832 0 .33.061.608.184.832.123.224.28.392.472.504.197.112.408.168.632.168zm4.734.576c-.373 0-.709-.085-1.008-.256a1.885 1.885 0 01-.711-.72c-.171-.315-.256-.683-.256-1.104 0-.421.088-.787.264-1.096a1.87 1.87 0 01.711-.728 2.04 2.04 0 011.016-.256c.374 0 .71.085 1.008.256.3.17.534.413.704.728.176.31.264.675.264 1.096 0 .421-.088.79-.264 1.104-.175.31-.415.55-.72.72-.298.17-.634.256-1.008.256zm0-.576c.23 0 .443-.056.64-.168.198-.112.358-.28.48-.504.123-.224.184-.501.184-.832 0-.33-.06-.608-.184-.832a1.202 1.202 0 00-.472-.504 1.26 1.26 0 00-.632-.168c-.229 0-.442.056-.64.168-.197.112-.357.28-.48.504-.122.224-.184.501-.184.832 0 .33.062.608.184.832.123.224.28.392.473.504.197.112.407.168.631.168zm4.727.576c-.395 0-.741-.09-1.04-.272a1.889 1.889 0 01-.688-.744 2.332 2.332 0 01-.24-1.072c0-.4.083-.755.248-1.064.165-.315.394-.56.688-.736.293-.181.64-.272 1.04-.272.325 0 .613.067.864.2.25.133.445.32.584.56V35.24h.672V41h-.608l-.064-.656a1.858 1.858 0 01-.552.52c-.24.155-.542.232-.904.232zm.072-.584c.267 0 .501-.061.704-.184.208-.128.368-.304.48-.528.117-.224.176-.485.176-.784 0-.299-.059-.56-.176-.784a1.225 1.225 0 00-.48-.52 1.29 1.29 0 00-.704-.192c-.261 0-.496.064-.704.192a1.294 1.294 0 00-.48.52 1.732 1.732 0 00-.168.784c0 .299.056.56.168.784.117.224.277.4.48.528.208.123.443.184.704.184zm6.837.488c-.363 0-.648-.088-.857-.264-.207-.176-.311-.493-.311-.952V37.6h-.689v-.568h.689l.087-.952h.584v.952h1.169v.568h-1.169v2.184c0 .25.051.421.152.512.102.085.28.128.537.128h.416V41h-.608zm1.525 0v-3.968h.608l.056.76c.123-.261.31-.47.56-.624.25-.155.56-.232.928-.232v.704h-.184c-.234 0-.45.043-.648.128a.962.962 0 00-.472.416c-.117.197-.176.47-.176.816v2h-.672zm6.379-3.968V41h-.608l-.04-.712a1.44 1.44 0 01-.552.592c-.24.144-.512.216-.817.216-.469 0-.845-.141-1.128-.424-.277-.288-.416-.728-.416-1.32v-2.32h.672v2.248c0 .827.342 1.24 1.024 1.24a1.1 1.1 0 00.848-.368c.23-.25.345-.605.345-1.064v-2.056h.672zm2.93 4.064c-.379 0-.72-.085-1.024-.256a1.945 1.945 0 01-.712-.728 2.264 2.264 0 01-.256-1.096c0-.416.085-.779.256-1.088a1.87 1.87 0 01.712-.728 2.006 2.006 0 011.024-.264c.469 0 .864.123 1.184.368.325.245.53.573.616.984h-.688a.867.867 0 00-.392-.568 1.281 1.281 0 00-.728-.208 1.26 1.26 0 00-.632.168c-.198.112-.358.28-.48.504-.123.224-.184.501-.184.832 0 .33.061.608.184.832.122.224.282.395.48.512.197.112.408.168.632.168.277 0 .52-.067.728-.2a.9.9 0 00.392-.584h.688c-.08.4-.283.725-.608.976-.326.25-.723.376-1.192.376zM35.755 41v-5.76h.672v3.464l1.624-1.672h.824l-1.76 1.792L39.1 41h-.856l-1.816-2.056V41h-.672zm5.317.096c-.475 0-.87-.12-1.184-.36a1.403 1.403 0 01-.552-.976h.688c.043.208.152.39.328.544.181.15.424.224.728.224.283 0 .49-.059.624-.176a.57.57 0 00.2-.432c0-.24-.088-.4-.264-.48a3.366 3.366 0 00-.728-.216 4.13 4.13 0 01-.64-.184 1.481 1.481 0 01-.536-.336.806.806 0 01-.216-.584c0-.347.128-.63.384-.848.261-.224.613-.336 1.056-.336.421 0 .765.107 1.032.32.272.208.43.507.472.896H41.8a.672.672 0 00-.264-.472c-.144-.117-.339-.176-.584-.176-.24 0-.427.05-.56.152a.485.485 0 00-.192.4c0 .16.083.285.248.376.17.09.4.168.688.232a5.3 5.3 0 01.696.2c.224.075.405.19.544.344.144.15.216.368.216.656.005.357-.13.653-.408.888-.272.23-.643.344-1.112.344z" fill="#fff"/></svg>